<?xml version="1.0" standalone="no"?>
<!DOCTYPE svg PUBLIC "-//W3C//DTD SVG 1.1//EN" "http://www.w3.org/Graphics/SVG/1.1/DTD/svg11.dtd" >
<svg xmlns="http://www.w3.org/2000/svg" xmlns:xlink="http://www.w3.org/1999/xlink" version="1.1">
<metadata>
Created by FontForge 20161003 at Tue Feb 26 11:33:49 2019
 By www-data
Copyright (c) D.Shkavronsky, 2003. All rights reserved.
</metadata>
<defs>
<font id="DSEuropeExpandedBold" horiz-adv-x="861" >
  <font-face 
    font-family="DSEuropeExpandedBold"
    font-weight="700"
    font-stretch="expanded"
    units-per-em="1000"
    panose-1="2 0 8 7 4 0 0 2 0 4"
    ascent="800"
    descent="-200"
    x-height="494"
    cap-height="694"
    bbox="-27 -220 1420 896"
    underline-thickness="50"
    underline-position="-150"
    unicode-range="U+0020-F8FF"
  />
<missing-glyph horiz-adv-x="500" 
 />
    <glyph glyph-name=".notdef" horiz-adv-x="500" 
 />
    <glyph glyph-name=".null" horiz-adv-x="0" 
 />
    <glyph glyph-name="nonmarkingreturn" horiz-adv-x="333" 
 />
    <glyph glyph-name="space" unicode=" " horiz-adv-x="346" 
 />
    <glyph glyph-name="space" unicode="&#xa0;" horiz-adv-x="346" 
 />
    <glyph glyph-name="exclam" unicode="!" horiz-adv-x="333" 
d="M254 250h-166v444h166v-444zM254 0h-166v166h166v-166z" />
    <glyph glyph-name="quotedbl" unicode="&#x22;" horiz-adv-x="356" 
d="M317 708l-23 -227h-66l-22 227h111zM157 708l-23 -227h-66l-22 227h111z" />
    <glyph glyph-name="numbersign" unicode="#" horiz-adv-x="633" 
d="M609 547l-13 -56h-132l-31 -124h131l-14 -56h-131l-33 -135h-55l35 135h-149l-37 -135h-54l37 135h-135l12 56h137l31 124h-136l16 56h134l32 130h55l-33 -130h148l34 130h54l-33 -130h130zM411 491h-149l-31 -124h148z" />
    <glyph glyph-name="dollar" unicode="$" horiz-adv-x="907" 
d="M868 212q0 -122 -62.5 -167t-214.5 -45h-71v-89h-108v89h-89q-135 0 -195 48t-60 151h166q1 -22 13.5 -37t32 -21t33.5 -8t28 -2h71v160h-91q-78 0 -125 11t-72 38.5t-32.5 62.5t-7.5 95q0 96 58 144t199 48h71v63h108v-63h79q131 0 196 -44.5t65 -148.5h-166q0 21 -9 34
t-30 19t-41 7.5t-54 1.5h-40v-137h80q67 0 107 -4t74.5 -15.5t51.5 -35.5t26 -61t9 -94zM702 213q0 46 -28.5 62t-82.5 16h-71v-160h71q57 0 84 16.5t27 65.5zM412 422v137h-112q-22 0 -36 -19t-14 -47q0 -34 13.5 -52.5t36.5 -18.5h112z" />
    <glyph glyph-name="percent" unicode="%" horiz-adv-x="1216" 
d="M1167 141q0 -85 -32 -113t-119 -28h-162q-89 0 -122 28.5t-33 112.5v127q0 85 32 116.5t122 31.5h162q85 0 118.5 -32.5t33.5 -115.5v-127zM757 734l-205 -761h-101l205 761h101zM507 429q0 -85 -32 -113t-119 -28h-162q-89 0 -122 28.5t-33 112.5v127q0 85 32 116.5
t122 31.5h162q85 0 118.5 -32.5t33.5 -115.5v-127zM1067 160v88q0 46 -15 61t-61 15h-114q-47 0 -62.5 -15.5t-15.5 -58.5v-88q0 -41 15.5 -55.5t62.5 -14.5h114q46 0 61 13t15 55zM407 448v88q0 46 -15 61t-61 15h-114q-47 0 -62.5 -15.5t-15.5 -58.5v-88q0 -41 15.5 -55.5
t62.5 -14.5h114q46 0 61 13t15 55z" />
    <glyph glyph-name="ampersand" unicode="&#x26;" horiz-adv-x="988" 
d="M986 112l-72 -110l-112 62q-2 -3 -6 -7t-19.5 -15t-34 -19.5t-50.5 -15.5t-68 -7h-330q-107 0 -175 60.5t-68 179.5q0 49 17 86.5t40.5 57t47.5 31.5t41 17l17 4l-4 3q-5 3 -11.5 9.5t-13.5 16t-11.5 27.5t-4.5 40q0 92 54.5 126.5t156.5 34.5h242q63 0 110.5 -18
t70.5 -41t36.5 -54t16 -49t2.5 -33l-1 -5h-166q0 27 -24 44.5t-73 17.5h-177q-44 0 -61.5 -8.5t-17.5 -36.5q0 -18 14.5 -34.5t29.5 -23.5l14 -8l344 -194q16 17 16 132h166q0 -68 -10.5 -120t-21.5 -70l-10 -18zM640 158l-326 182q-4 0 -11 -1t-23.5 -6.5t-29.5 -15
t-23 -30t-10 -47.5q0 -48 29.5 -75t105.5 -27h170q46 0 75.5 5t36.5 10z" />
    <glyph glyph-name="quotesingle" unicode="'" horiz-adv-x="249" 
d="M183 708l-22 -227h-67l-22 227h111z" />
    <glyph glyph-name="parenleft" unicode="(" horiz-adv-x="329" 
d="M294 -118q-121 0 -190.5 56.5t-69.5 192.5v372q0 72 21.5 124t59.5 79.5t82 39.5t97 12v-138q-65 0 -95 -26.5t-30 -91.5v-371q0 -111 125 -111v-138z" />
    <glyph glyph-name="parenright" unicode=")" horiz-adv-x="329" 
d="M299 131q0 -136 -69 -192.5t-191 -56.5v138q125 0 125 111v371q0 65 -30 91.5t-95 26.5v138q53 0 97 -12t82 -39.5t59.5 -79.5t21.5 -124v-372z" />
    <glyph glyph-name="asterisk" unicode="*" horiz-adv-x="344" 
d="M311 490q0 -14 -9.5 -25t-23.5 -11q-18 0 -37 20l-62 65q10 -41 25 -87q3 -11 3 -20q0 -18 -10.5 -28t-25.5 -10q-14 0 -24 10t-10 28q0 10 3 20q7 23 27 84q-2 -3 -11 -12.5t-23.5 -25t-25.5 -28.5q-16 -19 -36 -19q-15 0 -25.5 10.5t-10.5 24.5q0 28 40 38
q17 5 38.5 11t34 9.5t14.5 3.5q-1 0 -10 2t-20 4.5t-27 5.5t-31 6q-39 8 -39 38q0 16 5 24t11 9.5t18 1.5q18 0 36 -19l64 -64q-14 41 -29 86q-3 11 -3 20q0 17 10 27.5t24 10.5q15 0 25.5 -10t10.5 -28q0 -10 -3 -20l-26 -86q28 33 59 67q18 19 36 19q15 0 25 -10.5
t10 -24.5q0 -28 -39 -38l-85 -21q43 -10 89 -19q38 -8 38 -39z" />
    <glyph glyph-name="plus" unicode="+" horiz-adv-x="564" 
d="M503 254h-157v-144h-135v144h-144v138h144v145h135v-145h157v-138z" />
    <glyph glyph-name="comma" unicode="," horiz-adv-x="333" 
d="M240 -27q0 -61 -9 -96t-35 -53.5t-58.5 -24t-91.5 -5.5v92q40 0 56.5 12t16.5 44v31h-45v166h166v-166z" />
    <glyph glyph-name="hyphen" unicode="-" horiz-adv-x="538" 
d="M476 256h-408v138h408v-138z" />
    <glyph glyph-name="hyphen" unicode="&#xad;" horiz-adv-x="538" 
d="M476 256h-408v138h408v-138z" />
    <glyph glyph-name="period" unicode="." horiz-adv-x="308" 
d="M240 0h-166v166h166v-166z" />
    <glyph glyph-name="slash" unicode="/" horiz-adv-x="338" 
d="M341 728l-222 -817h-111l222 817h111z" />
    <glyph glyph-name="zero" unicode="0" horiz-adv-x="916" 
d="M868 237q0 -132 -54 -184.5t-197 -52.5h-305q-139 0 -197.5 55t-58.5 182v218q0 141 56.5 194t199.5 53h305q134 0 192.5 -53t58.5 -194v-218zM702 255v185q0 74 -28.5 99t-104.5 25h-214q-78 0 -105.5 -25.5t-27.5 -99.5v-185q0 -68 27 -92t103 -24h220q79 0 104.5 23
t25.5 94z" />
    <glyph glyph-name="one" unicode="1" 
d="M564 0h-166v545h-51l-185 -145l-88 127l215 167h275v-694z" />
    <glyph glyph-name="two" unicode="2" 
d="M806 464q0 -202 -249 -217l-216 -13q-72 -4 -96 -18t-24 -48v-37h584v-131h-750v158q0 45 10 78.5t35.5 64t77.5 49t129 22.5l220 12q65 4 88.5 24.5t23.5 69.5t-27 67t-108 18h-116q-49 0 -79 -4t-48.5 -10.5t-27 -24t-10.5 -34.5t-2 -52h-166q0 49 4.5 83t19 69.5
t41 56t73 34t111.5 13.5h250q146 0 199 -48.5t53 -181.5z" />
    <glyph glyph-name="three" unicode="3" horiz-adv-x="876" 
d="M821 205q0 -60 -18 -101.5t-52.5 -63.5t-75.5 -31t-95 -9h-280q-120 0 -177 48t-57 149h161q0 -22 8 -36t26 -20.5t34.5 -8t44.5 -1.5h211q53 0 78.5 16.5t25.5 65.5q0 48 -34 62.5t-119 14.5h-150v123h189q56 0 79.5 19.5t23.5 65.5q0 45 -22.5 59t-80.5 14h-204
q-52 0 -83.5 -20.5t-31.5 -63.5h-156q0 38 10.5 72.5t35 68.5t73 54t115.5 20h279q50 0 88.5 -7.5t72 -26t52 -54t18.5 -86.5q0 -88 -25 -120.5t-79 -44.5q16 -4 32.5 -13.5t36.5 -27t33 -48t13 -69.5z" />
    <glyph glyph-name="four" unicode="4" 
d="M844 150h-94v-150h-166v149h-518v233l387 312h297v-407h94v-137zM584 287v269h-39l-313 -247v-22h352z" />
    <glyph glyph-name="five" unicode="5" 
d="M815 233q0 -124 -56.5 -178.5t-199.5 -54.5h-249q-251 0 -251 197h166q0 -38 27.5 -52t76.5 -14h233q46 0 66.5 24.5t20.5 75.5q0 54 -20.5 79.5t-66.5 25.5h-189q-74 0 -102 -18t-35 -63h-165v439h726v-131h-560v-151q19 18 33.5 27.5t52 18.5t94.5 9h142
q76 0 126.5 -14t78.5 -44.5t39.5 -72t11.5 -103.5z" />
    <glyph glyph-name="six" unicode="6" 
d="M809 250q0 -151 -50.5 -200.5t-206.5 -49.5h-243q-129 0 -193 46t-64 144v309q0 107 58 155t199 48h243q133 0 192 -47.5t59 -149.5h-156q0 41 -29.5 53.5t-92.5 12.5h-172q-77 0 -106 -19.5t-29 -74.5v-91q17 19 31 30t52.5 22t95.5 11h128q146 0 215 -43t69 -156z
M643 216q0 55 -25 78.5t-100 23.5h-175q-72 0 -98.5 -25t-26.5 -76q0 -47 26.5 -66.5t101.5 -19.5h172q73 0 99 19.5t26 65.5z" />
    <glyph glyph-name="seven" unicode="7" 
d="M821 579l-458 -579h-207l442 556h-544v138h767v-115z" />
    <glyph glyph-name="eight" unicode="8" 
d="M820 195q0 -195 -253 -195h-253q-127 0 -189.5 47.5t-62.5 146.5q0 79 41 118.5t92 48.5q-51 14 -85.5 50.5t-34.5 98.5q0 105 50.5 144.5t186.5 39.5h257q133 0 187.5 -40.5t54.5 -143.5q0 -115 -122 -149q53 -11 92 -50.5t39 -115.5zM645 495q0 45 -22.5 60.5
t-92.5 15.5h-179q-72 0 -91 -15.5t-19 -60.5q0 -43 21 -58.5t90 -15.5h178q71 0 93 16t22 58zM654 212q0 42 -27 64t-97 22h-179q-65 0 -94 -21.5t-29 -64.5q0 -44 28.5 -66.5t95.5 -22.5h178q71 0 97.5 22t26.5 67z" />
    <glyph glyph-name="nine" unicode="9" 
d="M809 201q0 -107 -58.5 -154t-199.5 -47h-242q-133 0 -192 47t-59 148h156q0 -22 8 -36t27 -19.5t36.5 -7t50.5 -1.5h172q77 0 106 18.5t29 73.5v91q-17 -19 -31 -30t-52.5 -22t-95.5 -11h-128q-146 0 -215 43t-69 156q0 104 21.5 156t75 74t160.5 22h243q257 0 257 -192
v-309zM643 483q0 47 -27 67.5t-101 20.5h-172q-73 0 -99 -20.5t-26 -66.5q0 -55 25 -78.5t100 -23.5h175q72 0 98.5 25.5t26.5 75.5z" />
    <glyph glyph-name="colon" unicode=":" horiz-adv-x="329" 
d="M241 316h-166v166h166v-166zM241 0h-166v166h166v-166z" />
    <glyph glyph-name="semicolon" unicode=";" horiz-adv-x="329" 
d="M268 289h-166v166h166v-166zM268 -27q0 -61 -9 -96t-35 -53.5t-58.5 -24t-91.5 -5.5v92q40 0 56.5 12t16.5 44v31h-45v166h166v-166z" />
    <glyph glyph-name="less" unicode="&#x3c;" horiz-adv-x="367" 
d="M317 104l-286 190v99l286 194v-134l-169 -107l169 -108v-134z" />
    <glyph glyph-name="equal" unicode="=" horiz-adv-x="648" 
d="M588 368h-520v111h520v-111zM588 168h-520v111h520v-111z" />
    <glyph glyph-name="greater" unicode="&#x3e;" horiz-adv-x="367" 
d="M333 294l-285 -190v134l169 108l-169 107v134l285 -194v-99z" />
    <glyph glyph-name="question" unicode="?" horiz-adv-x="867" 
d="M823 503q0 -102 -58 -139.5t-202 -54.5q-65 -8 -83 -19t-18 -32v-37h-166v64q0 125 180 151q12 2 30.5 4t30 4t27.5 4t26 4.5t22 6t19 7.5t13.5 9.5t9.5 12.5t3 15q0 36 -36 48.5t-125 12.5h-127q-91 0 -125 -20t-34 -61h-166q0 42 13.5 79.5t41.5 69.5t78.5 51t118.5 19
h271q145 0 200.5 -43.5t55.5 -155.5zM462 0h-166v166h166v-166z" />
    <glyph glyph-name="at" unicode="@" horiz-adv-x="652" 
d="M612 436q0 -62 -28.5 -108t-91.5 -46q-20 0 -35.5 4.5t-23 11t-12.5 14t-6 12t-1 7.5q-5 -8 -12.5 -16t-36.5 -20.5t-67 -12.5q-61 0 -95.5 38.5t-34.5 91.5q0 59 41.5 105.5t110.5 46.5q78 0 109 -53l3 47h46l-20 -159q-4 -26 -4 -31q0 -41 44 -41q33 0 50.5 34t17.5 79
q0 111 -72 169.5t-166 58.5q-111 0 -174.5 -71t-63.5 -165t63 -163t175 -69q46 0 91 17t65 41l30 -36q-19 -26 -73.5 -46t-116.5 -20q-135 0 -210.5 81t-75.5 193q0 71 32 134t99.5 105.5t158.5 42.5q35 0 72 -9t75.5 -30t68.5 -52t49 -79t19 -106zM406 428q0 36 -22 63.5
t-60 27.5q-46 0 -74 -32.5t-28 -72.5q0 -35 23 -61t63 -26q46 0 72 30.5t26 70.5z" />
    <glyph glyph-name="A" unicode="A" horiz-adv-x="983" 
d="M987 0h-195l-89 175h-411l-90 -175h-194l368 694h246zM636 306l-132 258h-8l-137 -258h277z" />
    <glyph glyph-name="B" unicode="B" horiz-adv-x="887" 
d="M828 204q0 -110 -56 -157t-176 -47h-534v694h500q120 0 179.5 -40.5t59.5 -133.5q0 -78 -19.5 -108.5t-66.5 -45.5q58 -19 85.5 -52.5t27.5 -109.5zM635 494q0 32 -17.5 50.5t-51.5 18.5h-338v-150h339q33 0 50.5 22.5t17.5 58.5zM662 212q0 44 -17.5 61t-77.5 17h-339
v-159h333q64 0 82.5 16.5t18.5 64.5z" />
    <glyph glyph-name="C" unicode="C" horiz-adv-x="910" 
d="M863 240q0 -73 -10.5 -116.5t-39 -72.5t-76 -40t-125.5 -11h-309q-144 0 -198.5 53t-54.5 192v197q0 151 57.5 205.5t211.5 54.5h276q134 0 200.5 -52t66.5 -190h-166q0 55 -31 79.5t-102 24.5h-213q-84 0 -109 -23.5t-25 -104.5v-172q0 -76 29.5 -101t104.5 -25h213
q76 0 104.5 20.5t28.5 81.5h167z" />
    <glyph glyph-name="D" unicode="D" horiz-adv-x="897" 
d="M843 257q0 -137 -56 -197t-189 -60h-537v694h536q129 0 187.5 -58.5t58.5 -194.5v-184zM677 256v182q0 62 -32 90t-119 28h-299v-418h299q90 0 120.5 26.5t30.5 91.5z" />
    <glyph glyph-name="E" unicode="E" horiz-adv-x="834" 
d="M777 0h-709v694h709v-131h-543v-152h526v-121h-526v-159h543v-131z" />
    <glyph glyph-name="F" unicode="F" horiz-adv-x="813" 
d="M769 556h-543v-128h527v-138h-527v-290h-166v694h709v-138z" />
    <glyph glyph-name="G" unicode="G" horiz-adv-x="936" 
d="M892 222q0 -123 -58 -172.5t-194 -49.5h-336q-130 0 -193 56.5t-63 180.5v213q0 138 59.5 195t196.5 57h333q134 0 194.5 -44.5t60.5 -168.5h-166q0 41 -29 58t-103 17h-245q-76 0 -105.5 -29t-29.5 -106v-176q0 -71 25.5 -93t107.5 -22h273q60 0 83 16.5t23 55.5v74
h-274v123h440v-185z" />
    <glyph glyph-name="H" unicode="H" horiz-adv-x="864" 
d="M814 0h-166v290h-429v-290h-166v694h166v-266h429v266h166v-694z" />
    <glyph glyph-name="I" unicode="I" horiz-adv-x="328" 
d="M254 0h-166v694h166v-694z" />
    <glyph glyph-name="J" unicode="J" horiz-adv-x="776" 
d="M726 247q0 -128 -61 -187.5t-193 -59.5h-188q-135 0 -196 60.5t-61 186.5v52h166v-39q0 -62 25.5 -92t88.5 -30h140q62 0 87.5 31t25.5 89v436h166v-447z" />
    <glyph glyph-name="K" unicode="K" horiz-adv-x="909" 
d="M894 0h-244l-321 297h-101v-297h-166v694h166v-259h98l303 259h249l-409 -325z" />
    <glyph glyph-name="L" unicode="L" horiz-adv-x="703" 
d="M655 0h-595v694h166v-556h429v-138z" />
    <glyph glyph-name="M" unicode="M" horiz-adv-x="1217" 
d="M1159 0h-166v556h-22l-238 -556h-236l-238 556h-22v-556h-166v694h309l230 -556h10l230 556h309v-694z" />
    <glyph glyph-name="N" unicode="N" horiz-adv-x="1020" 
d="M957 0h-285l-417 556h-23v-556h-166v694h279l423 -556h23v556h166v-694z" />
    <glyph glyph-name="O" unicode="O" horiz-adv-x="916" 
d="M868 237q0 -132 -54 -184.5t-197 -52.5h-305q-139 0 -197.5 55t-58.5 182v218q0 141 56.5 194t199.5 53h305q134 0 192.5 -53t58.5 -194v-218zM702 255v185q0 74 -28.5 99t-104.5 25h-214q-78 0 -105.5 -25.5t-27.5 -99.5v-185q0 -68 27 -92t103 -24h220q79 0 104.5 23
t25.5 94z" />
    <glyph glyph-name="P" unicode="P" horiz-adv-x="800" 
d="M773 451q-1 -132 -57.5 -189t-184.5 -57h-309v-205h-166v694h473q131 0 187.5 -56t56.5 -187zM607 451q0 54 -23 79.5t-85 25.5h-277v-213h277q61 0 84.5 25t23.5 83z" />
    <glyph glyph-name="Q" unicode="Q" horiz-adv-x="929" 
d="M937 116l-88 -132l-70 46q-45 -30 -142 -30h-327q-130 0 -193 54.5t-63 173.5v241q0 123 57 178t199 55h304q141 0 196.5 -52.5t55.5 -193.5v-289zM700 260v192q0 46 -30 79t-103 33h-212q-71 0 -103 -34.5t-32 -85.5v-188q0 -70 29 -94t106 -24h259l-212 131l97 137
q13 -9 33.5 -24.5t64.5 -47.5t73.5 -53.5t29.5 -20.5z" />
    <glyph glyph-name="R" unicode="R" horiz-adv-x="889" 
d="M845 0h-166v108q0 52 -30.5 75t-101.5 23h-322v-206h-166v694h527q120 0 183.5 -53t63.5 -191q0 -72 -27.5 -113t-73.5 -68q58 -19 85.5 -46t27.5 -79v-144zM667 450q0 57 -20.5 81.5t-74.5 24.5h-347v-212h347q53 0 74 24.5t21 81.5z" />
    <glyph glyph-name="S" unicode="S" horiz-adv-x="897" 
d="M839 211q0 -111 -53 -161t-175 -50h-335q-129 0 -179.5 46.5t-50.5 150.5h166q0 -26 24 -46t58 -20h278q54 0 77.5 19t23.5 61t-20 60t-86 18h-246q-75 0 -120.5 8t-78.5 30.5t-46 63.5t-13 107q0 105 59.5 150.5t197.5 45.5h282q125 0 181 -47.5t56 -148.5h-166
q0 34 -17.5 49.5t-67.5 15.5h-279q-80 0 -80 -72q0 -43 20 -57t60 -14h303q52 0 83 -3t62 -15t47 -34.5t25.5 -61t9.5 -95.5z" />
    <glyph glyph-name="T" unicode="T" horiz-adv-x="800" 
d="M785 556h-293v-556h-166v556h-290v138h749v-138z" />
    <glyph glyph-name="U" unicode="U" horiz-adv-x="896" 
d="M857 247q0 -136 -56.5 -191.5t-191.5 -55.5h-305q-131 0 -194 60.5t-63 186.5v447h166v-431q0 -70 29.5 -97.5t98.5 -27.5h229q63 0 92 28.5t29 97.5v430h166v-447z" />
    <glyph glyph-name="V" unicode="V" horiz-adv-x="983" 
d="M990 694l-372 -694h-240l-370 694h192l288 -556h20l292 556h190z" />
    <glyph glyph-name="W" unicode="W" horiz-adv-x="1391" 
d="M1380 694l-269 -694h-244l-167 472l-167 -472h-244l-270 694h172l217 -556h9l196 556h173l198 -556h12l212 556h172z" />
    <glyph glyph-name="X" unicode="X" horiz-adv-x="984" 
d="M980 0h-244l-246 274l-246 -274h-244l359 357l-320 337h225l226 -253l226 253h225l-320 -337z" />
    <glyph glyph-name="Y" unicode="Y" horiz-adv-x="882" 
d="M886 694l-357 -460v-234h-166v234l-357 460h209l230 -323l232 323h209z" />
    <glyph glyph-name="Z" unicode="Z" horiz-adv-x="866" 
d="M816 0h-780v136l535 420h-535v138h780v-140l-516 -416h516v-138z" />
    <glyph glyph-name="bracketleft" unicode="[" horiz-adv-x="289" 
d="M252 -112l-188 1v872h185v-59h-74v-754h77v-60z" />
    <glyph glyph-name="backslash" unicode="\" horiz-adv-x="338" 
d="M339 -89h-111l-222 817h111z" />
    <glyph glyph-name="bracketright" unicode="]" horiz-adv-x="289" 
d="M238 -111h-188v59h77v754h-75v59h186v-872z" />
    <glyph glyph-name="asciicircum" unicode="^" horiz-adv-x="406" 
d="M372 399h-33l-133 155l-135 -155h-32l147 242h40z" />
    <glyph glyph-name="underscore" unicode="_" horiz-adv-x="389" 
d="M389 -56h-388v55h388v-55z" />
    <glyph glyph-name="grave" unicode="`" horiz-adv-x="320" 
d="M274 587l-38 -33l-189 130l76 74z" />
    <glyph glyph-name="a" unicode="a" horiz-adv-x="772" 
d="M715 0h-166v56q-24 -32 -43.5 -44t-61.5 -12h-222q-78 0 -122 31.5t-44 94.5v60q0 65 44.5 98t155.5 33h201q65 0 92 -48v62q0 36 -20.5 48t-70.5 12h-176q-39 0 -51.5 -5t-12.5 -19v-16h-158q0 67 45 105t155 38h245q110 0 160 -47.5t50 -126.5v-320zM549 158
q0 30 -18 43t-63 13h-171q-44 0 -61.5 -12t-17.5 -44q0 -30 17 -42.5t62 -12.5h171q46 0 63.5 12t17.5 43z" />
    <glyph glyph-name="b" unicode="b" horiz-adv-x="784" 
d="M729 194q0 -89 -54 -141.5t-161 -52.5h-148q-41 0 -77 16t-51 32l-15 16v-64h-166v694h166v-275q3 5 6.5 11t15.5 18.5t26.5 21.5t39.5 16.5t55 7.5h148q101 0 158 -53t57 -144v-103zM563 207v78q0 95 -114 95h-112q-52 0 -83 -26.5t-31 -67.5v-79q0 -40 31 -66.5
t83 -26.5h112q60 0 87 23t27 70z" />
    <glyph glyph-name="c" unicode="c" horiz-adv-x="724" 
d="M688 179q0 -94 -45.5 -136.5t-172.5 -42.5h-236q-94 0 -146.5 53t-52.5 130v119q0 89 53 141.5t151 52.5h225q120 0 172 -39.5t52 -134.5h-166q0 32 -15 46t-56 14h-157q-44 0 -68.5 -25.5t-24.5 -71.5v-85q0 -40 25 -63t63 -23h160q45 0 59 13.5t14 51.5h166z" />
    <glyph glyph-name="d" unicode="d" horiz-adv-x="784" 
d="M729 0h-166v64q-2 -3 -6 -7t-18 -15t-29 -19.5t-39.5 -15.5t-50.5 -7h-148q-107 0 -161 52.5t-54 141.5v103q0 91 57 144t158 53h148q30 0 55 -7.5t39.5 -16.5t26.5 -21.5t15.5 -18.5t6.5 -11v275h166v-694zM563 207v79q0 40 -31 67t-83 27h-112q-114 0 -114 -95v-78
q0 -47 27 -70t87 -23h112q52 0 83 26.5t31 66.5z" />
    <glyph glyph-name="e" unicode="e" horiz-adv-x="698" 
d="M669 162q0 -74 -46 -118t-162 -44h-243q-100 0 -152 52t-52 137v125q0 74 52 128t155 54h236q59 0 101.5 -17t66 -46.5t34 -63.5t10.5 -74v-84h-489v-19q0 -89 79 -89h192q59 0 59 59h159zM510 303q0 90 -93 90h-153q-84 0 -84 -90h330z" />
    <glyph glyph-name="f" unicode="f" horiz-adv-x="501" 
d="M440 580h-116q-40 0 -53 -9t-13 -39v-38h180v-114h-180v-380h-166v380h-61v114h61v45q0 155 219 155h129v-114z" />
    <glyph glyph-name="g" unicode="g" horiz-adv-x="774" 
d="M722 -23q0 -95 -57 -146t-169 -51h-239q-84 0 -138.5 47.5t-54.5 124.5h167q0 -22 20 -40t51 -18h170q39 0 61.5 20t22.5 55v103q-12 -28 -50 -50t-88 -22h-161q-99 0 -153.5 52t-54.5 129v127q0 88 58.5 137t156.5 49h151q29 0 53.5 -6t39 -13.5t26.5 -17.5t16 -15.5
t6 -9.5v62h166v-517zM556 208v76q0 43 -29 69.5t-83 26.5h-114q-115 0 -115 -96v-75q0 -95 116 -95h114q52 0 81.5 27t29.5 67z" />
    <glyph glyph-name="h" unicode="h" horiz-adv-x="781" 
d="M718 0h-166v255q0 65 -27.5 95t-90.5 30h-81q-63 0 -97.5 -36t-34.5 -102v-242h-166v694h166v-271q47 71 144 71h134q111 0 165 -51t54 -143v-300z" />
    <glyph glyph-name="i" unicode="i" horiz-adv-x="298" 
d="M236 556h-166v138h166v-138zM236 0h-166v494h166v-494z" />
    <glyph glyph-name="j" unicode="j" horiz-adv-x="341" 
d="M276 556h-166v138h166v-138zM276 -29q0 -183 -259 -183v135q93 0 93 116v455h166v-523z" />
    <glyph glyph-name="k" unicode="k" horiz-adv-x="647" 
d="M649 0h-198l-177 214h-61v-214h-166v694h166v-377h61l167 177h187l-231 -229z" />
    <glyph glyph-name="l" unicode="l" horiz-adv-x="293" 
d="M231 0h-166v694h166v-694z" />
    <glyph glyph-name="m" unicode="m" horiz-adv-x="1164" 
d="M1115 0h-166v272q0 57 -21.5 82.5t-93.5 25.5h-40q-61 0 -93 -30.5t-32 -84.5v-265h-166v267q0 55 -26 84t-94 29h-49q-111 0 -111 -112v-268h-166v494h166v-77q32 40 66 58.5t92 18.5h97q131 0 169 -72q26 38 63 55t123 17h59q115 0 169 -50t54 -139v-305z" />
    <glyph glyph-name="n" unicode="n" horiz-adv-x="773" 
d="M714 0h-166v258q0 65 -27 93.5t-90 28.5h-82q-63 0 -97.5 -34.5t-34.5 -100.5v-245h-166v494h166v-70q2 5 5 10.5t14 17t25.5 20t40.5 15.5t58 7h134q108 0 164 -53t56 -150v-291z" />
    <glyph glyph-name="o" unicode="o" horiz-adv-x="770" 
d="M716 193q0 -87 -56.5 -140t-159.5 -53h-232q-102 0 -159.5 53.5t-57.5 141.5v103q0 86 56 142t161 56h231q105 0 161 -55.5t56 -142.5v-105zM550 206v79q0 45 -27 71t-80 26h-113q-113 0 -113 -96v-81q0 -91 113 -91h113q55 0 81 21.5t26 70.5z" />
    <glyph glyph-name="p" unicode="p" horiz-adv-x="764" 
d="M724 194q0 -86 -55 -140t-161 -54h-149q-50 0 -89 21t-55 47v-268h-166v694h166v-59q18 17 33 27.5t45 21t65 10.5h150q105 0 160.5 -49t55.5 -143v-108zM558 207v80q0 93 -116 93h-119q-108 0 -108 -93v-80q0 -93 108 -93h119q116 0 116 93z" />
    <glyph glyph-name="q" unicode="q" horiz-adv-x="773" 
d="M722 -200h-166v268q-16 -26 -55 -47t-89 -21h-149q-106 0 -161 54t-55 140v108q0 94 55.5 143t160.5 49h150q35 0 65 -10.5t45 -21t33 -27.5v59h166v-694zM556 207v80q0 93 -108 93h-119q-116 0 -116 -93v-80q0 -93 116 -93h119q108 0 108 93z" />
    <glyph glyph-name="r" unicode="r" horiz-adv-x="683" 
d="M648 293h-166q-5 21 -9 32.5t-14.5 26.5t-29.5 21.5t-47 6.5h-61q-50 0 -82 -34t-32 -85v-261h-166v494h166v-72q31 40 61.5 56t80.5 16h83q64 0 108.5 -16t67 -45.5t31.5 -63t9 -76.5z" />
    <glyph glyph-name="s" unicode="s" horiz-adv-x="698" 
d="M663 150q0 -150 -199 -150h-236q-99 0 -143.5 38.5t-44.5 119.5h139q0 -55 65 -55h204q66 0 66 41q0 21 -16.5 35.5t-52.5 14.5h-237q-164 0 -164 137v30q0 63 44 99t150 36h222q113 0 158 -35t45 -121h-149q0 29 -21 41t-65 12h-188q-61 0 -61 -41q0 -44 57 -44h225
q108 0 155 -31.5t47 -94.5v-32z" />
    <glyph glyph-name="t" unicode="t" horiz-adv-x="667" 
d="M627 202q0 -35 -4.5 -61.5t-19 -54t-40 -45.5t-70.5 -29.5t-106 -11.5h-105q-95 0 -147.5 49t-52.5 135v196h-60v114h60v95h166v-95h310v-114h-310v-178q0 -88 79 -88h69q65 0 65 88h166z" />
    <glyph glyph-name="u" unicode="u" horiz-adv-x="796" 
d="M736 0h-166v63q-42 -63 -143 -63h-159q-99 0 -157 52t-58 157v285h166v-245q0 -70 35 -102.5t108 -32.5h65q65 0 104 35.5t39 99.5v245h166v-494z" />
    <glyph glyph-name="v" unicode="v" horiz-adv-x="676" 
d="M670 494l-233 -494h-189l-234 494h162l166 -356l167 356h161z" />
    <glyph glyph-name="w" unicode="w" horiz-adv-x="1107" 
d="M1096 494l-216 -494h-189l-133 309l-134 -309h-188l-216 494h161l149 -356l148 356h159l149 -356l148 356h162z" />
    <glyph glyph-name="x" unicode="x" horiz-adv-x="693" 
d="M676 0h-185l-141 175l-141 -175h-185l219 258l-199 236h187l121 -150l117 150h187l-199 -236z" />
    <glyph glyph-name="y" unicode="y" horiz-adv-x="684" 
d="M670 494l-233 -493q-35 -75 -56 -111.5t-52 -62t-65 -32t-95 -6.5h-23v114h23q44 0 67 17.5t51 79.5h-44l-210 494h155l138 -356h19l165 356h160z" />
    <glyph glyph-name="z" unicode="z" horiz-adv-x="662" 
d="M617 0h-578v133l373 247h-368v114h573v-128l-374 -252h374v-114z" />
    <glyph glyph-name="braceleft" unicode="{" horiz-adv-x="304" 
d="M302 -132q-56 0 -100 13.5t-74.5 48t-30.5 86.5v194q0 52 -65 98q65 46 65 98v172q0 174 205 174v-59q-52 0 -73 -20t-21 -73v-194q0 -29 -15 -53.5t-30 -34.5l-15 -10q7 -5 17 -14t26.5 -34.5t16.5 -49.5v-194q0 -50 21.5 -69.5t72.5 -19.5v-59z" />
    <glyph glyph-name="bar" unicode="|" horiz-adv-x="200" 
d="M142 -133h-83v872h83v-872z" />
    <glyph glyph-name="braceright" unicode="}" horiz-adv-x="304" 
d="M302 308q-65 -46 -65 -98v-194q0 -40 -17 -69.5t-47 -46t-65 -24.5t-76 -8v59q51 0 72.5 19.5t21.5 69.5v194q0 24 15 48.5t30 37.5l15 12q-7 4 -17 11t-26.5 32.5t-16.5 54.5v194q0 53 -21 73t-73 20v59q205 0 205 -174v-172q0 -53 65 -98z" />
    <glyph glyph-name="asciitilde" unicode="~" horiz-adv-x="591" 
d="M527 469q0 -5 -1.5 -14t-11 -31.5t-24.5 -40t-47 -31.5t-75 -14q-42 0 -79 26t-68 26q-28 0 -45.5 -13t-21.5 -26l-3 -13h-93q0 3 0.5 8.5t3.5 19t9 26t18.5 27t29 25.5t44 18t60.5 7q44 0 84 -26t61 -26q31 0 48.5 13t19.5 26l2 13h89z" />
    <glyph glyph-name="sterling" unicode="&#xa3;" horiz-adv-x="829" 
d="M769 482h-136q0 37 -16 58.5t-44 21.5h-276q-32 0 -50.5 -14.5t-18.5 -39.5q0 -24 26.5 -66t36.5 -71h397v-138h-385q-9 -47 -39 -95h494v-138h-698v122q69 39 103 111h-94v138h71q-50 50 -50 144q0 75 57 127.5t150 52.5h276q185 0 196 -213z" />
    <glyph glyph-name="section" unicode="&#xa7;" horiz-adv-x="751" 
d="M724 278q0 -45 -20 -76.5t-56 -38.5q4 -2 10 -7t16 -25.5t10 -46.5v-31q0 -55 -44.5 -91t-125.5 -36h-293q-70 0 -112.5 44t-42.5 113h138q0 -25 20.5 -34t66.5 -9h177q40 0 59 9.5t19 39.5q0 57 -77 57h-283q-160 0 -160 128v67q0 49 24 79.5t52 38.5q-2 2 -8 8.5
t-7.5 8.5l-6 8t-6.5 10t-4 10.5t-3 13.5t-1 16v34q0 55 39 91.5t109 36.5h313q81 0 119 -42t38 -115h-138q0 24 -24 33.5t-79 9.5h-164q-39 0 -57 -10.5t-18 -40.5t17.5 -40.5t57.5 -10.5h301q63 0 103.5 -36t40.5 -95v-71zM589 302v26q0 19 -14.5 34.5t-36.5 15.5h-319
q-55 0 -55 -62v-22q0 -21 11.5 -33.5t32.5 -12.5h309q72 0 72 54z" />
    <glyph glyph-name="copyright" unicode="&#xa9;" horiz-adv-x="652" 
d="M616 482q0 -72 -31 -134t-97.5 -103t-157.5 -41q-135 0 -211.5 82t-76.5 194q0 71 31.5 133.5t98.5 104.5t158 42q134 0 210 -83t76 -195zM594 480q0 104 -69.5 181t-194.5 77q-84 0 -146 -38.5t-91 -95.5t-29 -122t29 -122t91 -95.5t146 -38.5h2q123 0 192.5 76
t69.5 178zM432 388q-3 -5 -10.5 -12t-33.5 -18.5t-58 -11.5q-66 0 -104 40t-38 92t38 92t104 40q29 0 54.5 -10.5t36.5 -20t11 -11.5v-25q-43 45 -102 45q-55 0 -87.5 -33t-32.5 -77t32.5 -77t87.5 -33q31 0 56 12t34 22t12 17v-31z" />
    <glyph glyph-name="guillemotleft" unicode="&#xab;" horiz-adv-x="604" 
d="M590 109l-58 -75l-272 218v50l270 222l60 -73l-213 -172zM350 109l-58 -75l-272 218v50l270 222l60 -73l-213 -172z" />
    <glyph glyph-name="registered" unicode="&#xae;" horiz-adv-x="652" 
d="M616 485q0 -113 -76 -197t-210 -84q-135 0 -211.5 82t-76.5 194q0 71 31.5 133.5t98.5 104.5t158 42q135 0 210.5 -81.5t75.5 -193.5zM594 480q0 104 -69.5 181t-194.5 77q-84 0 -146 -38.5t-91 -95.5t-29 -122q0 -103 71 -179.5t197 -76.5q123 0 192.5 76t69.5 178z
M445 325h-28l-130 138h-22v-138h-22v300h128q7 0 20 -3.5t31.5 -24.5t18.5 -56q0 -20 -7.5 -35.5t-17.5 -23t-21.5 -12.5t-18 -6t-9.5 -1h-54zM419 541q0 25 -13 40.5t-22.5 18.5t-14.5 3h-104v-118h106q17 0 32.5 15.5t15.5 40.5z" />
    <glyph glyph-name="degree" unicode="&#xb0;" horiz-adv-x="284" 
d="M246 573q0 -28 -17.5 -46t-52.5 -18h-60q-73 0 -73 64v35q0 65 73 65h60q70 0 70 -65v-35zM215 574v33q0 36 -43 36h-54q-44 0 -44 -36v-33q0 -35 44 -35h54q43 0 43 35z" />
    <glyph glyph-name="plusminus" unicode="&#xb1;" horiz-adv-x="556" 
d="M490 414h-157v-144h-135v144h-144v138h144v145h135v-145h157v-138zM476 109h-408v138h408v-138z" />
    <glyph glyph-name="paragraph" unicode="&#xb6;" horiz-adv-x="858" 
d="M566 -56h-166v262h-116q-111 0 -177.5 69t-66.5 175q0 107 67.5 175.5t176.5 68.5h282v-750zM810 -56h-166v750h166v-750z" />
    <glyph glyph-name="guillemotright" unicode="&#xbb;" horiz-adv-x="613" 
d="M342 252l-265 -212l-60 72l209 167l-207 168l60 73l263 -218v-50zM591 252l-265 -212l-60 72l208 167l-206 168l60 73l263 -218v-50z" />
    <glyph glyph-name="multiply" unicode="&#xd7;" horiz-adv-x="564" 
d="M481 225l-96 -95l-102 101l-106 -101l-96 95l102 102l-102 102l98 97l102 -102l102 102l98 -97l-102 -102z" />
    <glyph glyph-name="divide" unicode="&#xf7;" horiz-adv-x="520" 
d="M338 452h-166v166h166v-166zM460 256h-408v138h408v-138zM338 31h-166v166h166v-166z" />
    <glyph glyph-name="florin" unicode="&#x192;" horiz-adv-x="413" 
d="M99 -13v405h-56v127h57q5 98 46 137t132 39h74v-127h-57q-25 0 -38.5 -10.5t-17.5 -38.5h54v-127h-56v-427q0 -51 -26 -85t-67.5 -47.5t-70 -18t-56.5 -4.5v138q82 0 82 39z" />
    <glyph glyph-name="afii10023" unicode="&#x401;" horiz-adv-x="834" 
d="M647 736h-166v138h166v-138zM418 736h-166v138h166v-138zM777 0h-709v694h709v-131h-543v-152h526v-121h-526v-159h543v-131z" />
    <glyph glyph-name="afii10053" unicode="&#x404;" horiz-adv-x="910" 
d="M863 240q0 -73 -10.5 -116.5t-39 -72.5t-76 -40t-125.5 -11h-309q-144 0 -198.5 53t-54.5 192v204q0 148 57 200.5t212 52.5h273q66 0 112 -10t83.5 -35.5t56 -73.5t18.5 -119h-165q0 53 -31 76.5t-102 23.5h-213q-86 0 -110.5 -20.5t-24.5 -100.5v-31h413v-121h-413v-27
q0 -76 29.5 -101t104.5 -25h213q76 0 105 20.5t29 81.5h166z" />
    <glyph glyph-name="afii10055" unicode="&#x406;" horiz-adv-x="328" 
d="M254 0h-166v694h166v-694z" />
    <glyph glyph-name="afii10056" unicode="&#x407;" horiz-adv-x="338" 
d="M368 736h-166v138h166v-138zM139 736h-166v138h166v-138zM252 0h-166v694h166v-694z" />
    <glyph glyph-name="afii10057" unicode="&#x408;" horiz-adv-x="776" 
d="M726 247q0 -128 -61 -187.5t-193 -59.5h-188q-135 0 -196 60.5t-61 186.5v52h166v-39q0 -62 25.5 -92t88.5 -30h140q62 0 87.5 31t25.5 89v436h166v-447z" />
    <glyph glyph-name="afii10062" unicode="&#x40e;" horiz-adv-x="879" 
d="M680 896q0 -33 -4 -53.5t-17.5 -41t-39 -31.5t-70 -18t-108.5 -7q-99 0 -151 15t-69.5 44t-17.5 83v9h135q0 -47 18 -58.5t85 -11.5q66 0 85 12t19 58h135zM854 694l-323 -522q-69 -113 -114.5 -142.5t-137.5 -29.5h-65v131h33q96 0 96 42q0 14 -12 32l-321 489h196
l232 -391l219 391h197z" />
    <glyph glyph-name="afii10017" unicode="&#x410;" horiz-adv-x="983" 
d="M987 0h-195l-89 175h-411l-90 -175h-194l368 694h246zM636 306l-132 258h-8l-137 -258h277z" />
    <glyph glyph-name="afii10018" unicode="&#x411;" horiz-adv-x="844" 
d="M785 217q0 -126 -58 -171.5t-189 -45.5h-473v694h651v-131h-485v-128h303q131 0 191 -46t60 -172zM619 219q0 44 -17.5 61t-77.5 17h-293v-159h287q64 0 82.5 16.5t18.5 64.5z" />
    <glyph glyph-name="afii10019" unicode="&#x412;" horiz-adv-x="887" 
d="M828 204q0 -110 -56 -157t-176 -47h-534v694h500q120 0 179.5 -40.5t59.5 -133.5q0 -78 -19.5 -108.5t-66.5 -45.5q58 -19 85.5 -52.5t27.5 -109.5zM635 494q0 32 -17.5 50.5t-51.5 18.5h-338v-150h339q33 0 50.5 22.5t17.5 58.5zM662 212q0 44 -17.5 61t-77.5 17h-339
v-159h333q64 0 82.5 16.5t18.5 64.5z" />
    <glyph glyph-name="afii10020" unicode="&#x413;" horiz-adv-x="703" 
d="M655 556h-429v-556h-166v694h595v-138z" />
    <glyph glyph-name="afii10021" unicode="&#x414;" horiz-adv-x="963" 
d="M933 -166h-151v166h-598v-166h-152v304h47q45 44 64 96t19 128v332h694v-556h77v-304zM690 138v418h-368v-228q0 -109 -57 -190h425z" />
    <glyph glyph-name="afii10022" unicode="&#x415;" horiz-adv-x="834" 
d="M777 0h-709v694h709v-131h-543v-152h526v-121h-526v-159h543v-131z" />
    <glyph glyph-name="afii10024" unicode="&#x416;" horiz-adv-x="1459" 
d="M1420 0h-222l-301 297h-86v-297h-166v297h-86l-301 -297h-222l382 369l-364 325h235l273 -259h83v259h166v-259h83l273 259h235l-364 -325z" />
    <glyph glyph-name="afii10025" unicode="&#x417;" horiz-adv-x="897" 
d="M845 211q0 -111 -55.5 -161t-178.5 -50h-335q-129 0 -179.5 46t-50.5 151h166q0 -26 24 -46t58 -20h278q55 0 81 18.5t26 59.5t-22.5 60.5t-89.5 19.5h-305v121h324q80 0 80 81q0 72 -80 72h-279q-49 0 -66 -15t-19 -50h-166q0 101 56 148.5t181 47.5h282q139 0 198 -45
t59 -151q0 -62 -23.5 -95t-69.5 -52q106 -38 106 -140z" />
    <glyph glyph-name="afii10026" unicode="&#x418;" horiz-adv-x="1020" 
d="M957 0h-166v556h-23l-417 -556h-285v694h166v-556h23l423 556h279v-694z" />
    <glyph glyph-name="afii10027" unicode="&#x419;" horiz-adv-x="1020" 
d="M957 0h-166v556h-23l-417 -556h-285v694h166v-556h23l423 556h279v-694zM723 896q0 -33 -4 -53.5t-17.5 -41t-39 -31.5t-70 -18t-108.5 -7q-99 0 -151 15t-69.5 44t-17.5 83v9h135q0 -47 18 -58.5t85 -11.5q66 0 85 12t19 58h135z" />
    <glyph glyph-name="afii10028" unicode="&#x41a;" horiz-adv-x="909" 
d="M894 0h-244l-321 297h-101v-297h-166v694h166v-259h98l303 259h249l-409 -325z" />
    <glyph glyph-name="afii10029" unicode="&#x41b;" horiz-adv-x="891" 
d="M841 0h-166v556h-390v-304q0 -252 -197 -252h-70v138q62 0 81.5 27.5t19.5 105.5v423h722v-694z" />
    <glyph glyph-name="afii10030" unicode="&#x41c;" horiz-adv-x="1217" 
d="M1159 0h-166v556h-22l-238 -556h-236l-238 556h-22v-556h-166v694h309l230 -556h10l230 556h309v-694z" />
    <glyph glyph-name="afii10031" unicode="&#x41d;" horiz-adv-x="864" 
d="M814 0h-166v290h-429v-290h-166v694h166v-266h429v266h166v-694z" />
    <glyph glyph-name="afii10032" unicode="&#x41e;" horiz-adv-x="916" 
d="M868 237q0 -132 -54 -184.5t-197 -52.5h-305q-139 0 -197.5 55t-58.5 182v218q0 141 56.5 194t199.5 53h305q134 0 192.5 -53t58.5 -194v-218zM702 255v185q0 74 -28.5 99t-104.5 25h-214q-78 0 -105.5 -25.5t-27.5 -99.5v-185q0 -68 27 -92t103 -24h220q79 0 104.5 23
t25.5 94z" />
    <glyph glyph-name="afii10033" unicode="&#x41f;" horiz-adv-x="864" 
d="M814 0h-166v556h-429v-556h-166v694h761v-694z" />
    <glyph glyph-name="afii10034" unicode="&#x420;" horiz-adv-x="800" 
d="M773 451q-1 -132 -57.5 -189t-184.5 -57h-309v-205h-166v694h473q131 0 187.5 -56t56.5 -187zM607 451q0 54 -23 79.5t-85 25.5h-277v-213h277q61 0 84.5 25t23.5 83z" />
    <glyph glyph-name="afii10035" unicode="&#x421;" horiz-adv-x="910" 
d="M863 240q0 -73 -10.5 -116.5t-39 -72.5t-76 -40t-125.5 -11h-309q-144 0 -198.5 53t-54.5 192v197q0 151 57.5 205.5t211.5 54.5h276q134 0 200.5 -52t66.5 -190h-166q0 55 -31 79.5t-102 24.5h-213q-84 0 -109 -23.5t-25 -104.5v-172q0 -76 29.5 -101t104.5 -25h213
q76 0 104.5 20.5t28.5 81.5h167z" />
    <glyph glyph-name="afii10036" unicode="&#x422;" horiz-adv-x="800" 
d="M785 556h-293v-556h-166v556h-290v138h749v-138z" />
    <glyph glyph-name="afii10037" unicode="&#x423;" horiz-adv-x="879" 
d="M854 694l-323 -522q-69 -113 -114.5 -142.5t-137.5 -29.5h-65v131h33q96 0 96 42q0 14 -12 32l-321 489h196l232 -391l219 391h197z" />
    <glyph glyph-name="afii10038" unicode="&#x424;" horiz-adv-x="1210" 
d="M1155 301q0 -132 -55 -185.5t-198 -53.5h-213v-62h-166v62h-215q-143 0 -197 52.5t-54 184.5v95q0 141 58 193.5t193 52.5h215v55h166v-55h213q135 0 194 -52t59 -193v-94zM989 318v60q0 74 -28 99t-104 25h-168v-302h171q79 0 104 23.5t25 94.5zM523 200v302h-167
q-76 0 -104.5 -25t-28.5 -99v-61q0 -71 25.5 -94t104.5 -23h170z" />
    <glyph glyph-name="afii10039" unicode="&#x425;" horiz-adv-x="984" 
d="M980 0h-244l-246 274l-246 -274h-244l359 357l-320 337h225l226 -253l226 253h225l-320 -337z" />
    <glyph glyph-name="afii10040" unicode="&#x426;" horiz-adv-x="941" 
d="M892 -167h-152v167h-687v694h166v-556h429v556h166v-556h78v-305z" />
    <glyph glyph-name="afii10041" unicode="&#x427;" horiz-adv-x="830" 
d="M777 0h-166v318q-79 -48 -183 -48h-126q-131 0 -193 60t-62 186v178h166v-160q0 -71 29 -98.5t97 -27.5h117q64 0 98 13t57 47v226h166v-694z" />
    <glyph glyph-name="afii10042" unicode="&#x428;" horiz-adv-x="1295" 
d="M1218 0h-1144v694h166v-556h323v556h166v-556h323v556h166v-694z" />
    <glyph glyph-name="afii10043" unicode="&#x429;" horiz-adv-x="1326" 
d="M1295 -166h-150v166h-1071v694h166v-556h323v556h166v-556h323v556h166v-556h77v-304z" />
    <glyph glyph-name="afii10044" unicode="&#x42a;" horiz-adv-x="1016" 
d="M962 217q0 -126 -58 -171.5t-189 -45.5h-473v556h-223v138h389v-259h303q131 0 191 -46t60 -172zM796 219q0 44 -17.5 61t-77.5 17h-293v-159h287q64 0 82.5 16.5t18.5 64.5z" />
    <glyph glyph-name="afii10045" unicode="&#x42b;" horiz-adv-x="1189" 
d="M1117 0h-166v694h166v-694zM787 217q0 -126 -58 -171.5t-189 -45.5h-473v694h166v-259h303q131 0 191 -46t60 -172zM621 219q0 44 -17.5 61t-77.5 17h-293v-159h287q64 0 82.5 16.5t18.5 64.5z" />
    <glyph glyph-name="afii10046" unicode="&#x42c;" horiz-adv-x="816" 
d="M776 217q0 -126 -58 -171.5t-189 -45.5h-473v694h166v-259h303q131 0 191 -46t60 -172zM610 219q0 44 -17.5 61t-77.5 17h-293v-159h287q64 0 82.5 16.5t18.5 64.5z" />
    <glyph glyph-name="afii10047" unicode="&#x42d;" horiz-adv-x="910" 
d="M863 246q0 -140 -54.5 -193t-198.5 -53h-309q-104 0 -157 22.5t-73.5 72.5t-20.5 146h166q0 -62 28.5 -82.5t105.5 -20.5h213q75 0 104.5 25.5t29.5 101.5v27h-413v121h413v30q0 80 -24.5 100.5t-110.5 20.5h-213q-71 0 -102 -23.5t-31 -76.5h-166q0 71 18.5 119t56 73.5
t84 35.5t112.5 10h274q155 0 211.5 -52t56.5 -201v-203z" />
    <glyph glyph-name="afii10048" unicode="&#x42e;" horiz-adv-x="1267" 
d="M1208 237q0 -132 -54 -184.5t-197 -52.5h-305q-139 0 -197.5 55t-58.5 182v53h-167v-290h-166v694h166v-266h167v28q0 141 56 193.5t200 52.5h305q135 0 193 -52.5t58 -193.5v-219zM1042 255v185q0 74 -28.5 99t-104.5 25h-214q-78 0 -105.5 -25.5t-27.5 -99.5v-185
q0 -68 27 -92t103 -24h220q79 0 104.5 23t25.5 94z" />
    <glyph glyph-name="afii10049" unicode="&#x42f;" horiz-adv-x="889" 
d="M846 0h-166v220h-276l-166 -220h-216l203 242q-62 14 -107.5 72.5t-45.5 135.5q0 138 63.5 191t183.5 53h527v-694zM680 351v212h-347q-54 0 -74.5 -24.5t-20.5 -81.5q0 -56 24 -81t76 -25h342z" />
    <glyph glyph-name="afii10065" unicode="&#x430;" horiz-adv-x="772" 
d="M715 0h-166v56q-24 -32 -43.5 -44t-61.5 -12h-222q-78 0 -122 31.5t-44 94.5v60q0 65 44.5 98t155.5 33h201q65 0 92 -48v62q0 36 -20.5 48t-70.5 12h-176q-39 0 -51.5 -5t-12.5 -19v-16h-158q0 67 45 105t155 38h245q110 0 160 -47.5t50 -126.5v-320zM549 158
q0 30 -18 43t-63 13h-171q-44 0 -61.5 -12t-17.5 -44q0 -30 17 -42.5t62 -12.5h171q46 0 63.5 12t17.5 43z" />
    <glyph glyph-name="afii10066" unicode="&#x431;" horiz-adv-x="784" 
d="M729 193q0 -85 -56.5 -139t-158.5 -54h-240q-103 0 -160 53t-57 140v255q0 89 52.5 140.5t151.5 51.5h227q28 0 44 15t16 39h129q0 -157 -208 -157h-171q-91 0 -91 -94v-64q17 27 33.5 43.5t48.5 29.5t76 13h148q101 0 158.5 -52t57.5 -143v-77zM563 207v61q0 94 -114 94
h-112q-51 0 -82.5 -30.5t-31.5 -70.5v-54q0 -40 31 -66.5t83 -26.5h112q60 0 87 23t27 70z" />
    <glyph glyph-name="afii10067" unicode="&#x432;" horiz-adv-x="708" 
d="M663 135q0 -72 -49.5 -103.5t-148.5 -31.5h-427v494h417q110 0 152.5 -33.5t42.5 -108.5q0 -79 -65 -103q78 -20 78 -114zM501 352q0 39 -61 39h-236v-89h240q57 0 57 50zM515 156q0 54 -71 54h-240v-107h244q30 0 48.5 13.5t18.5 39.5z" />
    <glyph glyph-name="afii10068" unicode="&#x433;" horiz-adv-x="573" 
d="M548 380h-331v-380h-166v494h497v-114z" />
    <glyph glyph-name="afii10069" unicode="&#x434;" horiz-adv-x="805" 
d="M787 -149h-152v149h-461v-149h-152v263h57q67 68 67 185v195h568v-380h73v-263zM548 114v266h-242v-94q0 -104 -51 -172h293z" />
    <glyph glyph-name="afii10070" unicode="&#x435;" horiz-adv-x="698" 
d="M669 162q0 -74 -46 -118t-162 -44h-243q-100 0 -152 52t-52 137v125q0 74 52 128t155 54h236q59 0 101.5 -17t66 -46.5t34 -63.5t10.5 -74v-84h-489v-19q0 -89 79 -89h192q59 0 59 59h159zM510 303q0 90 -93 90h-153q-84 0 -84 -90h330z" />
    <glyph glyph-name="afii10072" unicode="&#x436;" horiz-adv-x="1010" 
d="M989 0h-198l-154 214h-61v-214h-149v214h-61l-154 -214h-198l239 266l-218 228h187l144 -177h61v177h149v-177h61l144 177h187l-218 -228z" />
    <glyph glyph-name="afii10073" unicode="&#x437;" horiz-adv-x="708" 
d="M663 135q0 -72 -49 -103.5t-150 -31.5h-236q-99 0 -143.5 38t-44.5 119h149q0 -26 12 -40t43 -14h204q30 0 48.5 13.5t18.5 39.5q0 54 -71 54h-154v92h154q57 0 57 50q0 41 -61 41h-154q-42 0 -62.5 -12t-20.5 -41h-149q0 87 44 121.5t156 34.5h200q110 0 153 -34
t43 -110q0 -79 -65 -103q78 -20 78 -114z" />
    <glyph glyph-name="afii10074" unicode="&#x438;" horiz-adv-x="764" 
d="M708 0h-149v380h-22l-244 -380h-241v494h149v-380h18l252 380h237v-494z" />
    <glyph glyph-name="afii10075" unicode="&#x439;" horiz-adv-x="776" 
d="M562 695q0 -83 -43 -117t-146 -34t-146 34t-43 117h109q0 -30 13 -46.5t28 -20t39 -3.5q22 0 37.5 3.5t29 20t13.5 46.5h109zM715 0h-149v380h-22l-244 -380h-241v494h149v-380h18l252 380h237v-494z" />
    <glyph glyph-name="afii10076" unicode="&#x43a;" horiz-adv-x="647" 
d="M649 0h-198l-177 214h-61v-214h-166v494h166v-177h61l167 177h187l-231 -229z" />
    <glyph glyph-name="afii10077" unicode="&#x43b;" horiz-adv-x="758" 
d="M690 0h-166v380h-255v-173q0 -102 -48.5 -154.5t-141.5 -52.5h-70v114q65 0 82.5 20.5t17.5 95.5v264h581v-494z" />
    <glyph glyph-name="afii10078" unicode="&#x43c;" horiz-adv-x="966" 
d="M907 0h-149v380h-21l-164 -380h-171l-164 380h-21v-380h-149v494h250l158 -380h23l158 380h250v-494z" />
    <glyph glyph-name="afii10079" unicode="&#x43d;" horiz-adv-x="773" 
d="M714 0h-166v213h-331v-213h-166v494h166v-167h331v167h166v-494z" />
    <glyph glyph-name="afii10080" unicode="&#x43e;" horiz-adv-x="770" 
d="M716 193q0 -87 -56.5 -140t-159.5 -53h-232q-102 0 -159.5 53.5t-57.5 141.5v103q0 86 56 142t161 56h231q105 0 161 -55.5t56 -142.5v-105zM550 206v79q0 45 -27 71t-80 26h-113q-113 0 -113 -96v-81q0 -91 113 -91h113q55 0 81 21.5t26 70.5z" />
    <glyph glyph-name="afii10081" unicode="&#x43f;" horiz-adv-x="773" 
d="M714 0h-166v380h-331v-380h-166v494h663v-494z" />
    <glyph glyph-name="afii10082" unicode="&#x440;" horiz-adv-x="764" 
d="M724 194q0 -86 -55 -140t-161 -54h-149q-50 0 -89 21t-55 47v-268h-166v694h166v-59q18 17 33 27.5t45 21t65 10.5h150q105 0 160.5 -49t55.5 -143v-108zM558 207v80q0 93 -116 93h-119q-108 0 -108 -93v-80q0 -93 108 -93h119q116 0 116 93z" />
    <glyph glyph-name="afii10083" unicode="&#x441;" horiz-adv-x="724" 
d="M688 179q0 -94 -45.5 -136.5t-172.5 -42.5h-236q-94 0 -146.5 53t-52.5 130v119q0 89 53 141.5t151 52.5h225q120 0 172 -39.5t52 -134.5h-166q0 32 -15 46t-56 14h-157q-44 0 -68.5 -25.5t-24.5 -71.5v-85q0 -40 25 -63t63 -23h160q45 0 59 13.5t14 51.5h166z" />
    <glyph glyph-name="afii10084" unicode="&#x442;" horiz-adv-x="682" 
d="M664 380h-238v-380h-166v380h-238v114h642v-114z" />
    <glyph glyph-name="afii10085" unicode="&#x443;" horiz-adv-x="684" 
d="M670 494l-233 -493q-35 -75 -56 -111.5t-52 -62t-65 -32t-95 -6.5h-23v114h23q44 0 67 17.5t51 79.5h-44l-210 494h155l138 -356h19l165 356h160z" />
    <glyph glyph-name="afii10086" unicode="&#x444;" horiz-adv-x="1155" 
d="M1103 194q0 -86 -55 -140t-161 -54h-84q-50 0 -89 21t-55 47v-268h-166v270q-16 -26 -55 -48t-89 -22h-83q-106 0 -161.5 55t-55.5 141v108q0 94 55.5 142t160.5 48h85q82 0 143 -57v257h166v-259q18 17 33 27.5t45 21t65 10.5h85q105 0 160.5 -49t55.5 -143v-108z
M937 207v80q0 93 -115 93h-55q-54 0 -81 -24.5t-27 -68.5v-80q0 -93 108 -93h55q115 0 115 93zM493 208v80q0 44 -27 68t-81 24h-55q-115 0 -115 -91v-83q0 -47 28 -69.5t87 -22.5h55q108 0 108 94z" />
    <glyph glyph-name="afii10087" unicode="&#x445;" horiz-adv-x="693" 
d="M676 0h-185l-141 175l-141 -175h-185l219 258l-199 236h187l121 -150l117 150h187l-199 -236z" />
    <glyph glyph-name="afii10088" unicode="&#x446;" horiz-adv-x="819" 
d="M784 -149h-152v149h-581v494h166v-380h331v380h166v-380h70v-263z" />
    <glyph glyph-name="afii10089" unicode="&#x447;" horiz-adv-x="742" 
d="M684 0h-166v237q-27 -32 -60.5 -43t-82.5 -11h-104q-108 0 -164 53t-56 150v108h166v-75q0 -65 27 -93.5t90 -28.5h52q61 0 88 11.5t44 40.5v145h166v-494z" />
    <glyph glyph-name="afii10090" unicode="&#x448;" horiz-adv-x="1151" 
d="M1089 0h-1032v494h166v-380h267v380h166v-380h267v380h166v-494z" />
    <glyph glyph-name="afii10091" unicode="&#x449;" horiz-adv-x="1179" 
d="M1159 -149h-149v149h-953v494h166v-380h267v380h166v-380h267v380h166v-380h70v-263z" />
    <glyph glyph-name="afii10092" unicode="&#x44a;" horiz-adv-x="911" 
d="M854 126q0 -63 -44 -94.5t-122 -31.5h-493v391h-182v103h348v-177h293q111 0 155.5 -33t44.5 -98v-60zM692 158q0 32 -17.5 44t-61.5 12h-252v-111h252q45 0 62 12.5t17 42.5z" />
    <glyph glyph-name="afii10093" unicode="&#x44b;" horiz-adv-x="1114" 
d="M1043 0h-166v494h166v-494zM715 126q0 -63 -44 -94.5t-122 -31.5h-493v494h166v-177h293q111 0 155.5 -33t44.5 -98v-60zM553 158q0 32 -17.5 44t-61.5 12h-252v-111h252q44 0 61.5 12.5t17.5 42.5z" />
    <glyph glyph-name="afii10094" unicode="&#x44c;" horiz-adv-x="772" 
d="M715 126q0 -63 -44 -94.5t-122 -31.5h-493v494h166v-177h293q111 0 155.5 -33t44.5 -98v-60zM553 158q0 32 -17.5 44t-61.5 12h-252v-111h252q44 0 61.5 12.5t17.5 42.5z" />
    <glyph glyph-name="afii10095" unicode="&#x44d;" horiz-adv-x="724" 
d="M687 183q0 -77 -52.5 -130t-146.5 -53h-236q-128 0 -172.5 42t-44.5 137h166q0 -46 13.5 -61t58.5 -15h160q38 0 63 23t25 63v21h-272v92h272q0 91 -92 91h-150q-43 0 -60.5 -14.5t-17.5 -53.5h-166q0 96 54.5 133.5t177.5 37.5h216q99 0 151.5 -51t52.5 -140v-122z" />
    <glyph glyph-name="afii10096" unicode="&#x44e;" horiz-adv-x="1087" 
d="M1033 195q0 -84 -57 -139.5t-158 -55.5h-232q-103 0 -160.5 56.5t-57.5 151.5h-147v-208h-166v494h166v-172h147q0 72 57.5 122t159.5 50h232q105 0 160.5 -53.5t55.5 -141.5v-104zM867 207v79q0 94 -107 94h-113q-58 0 -85.5 -22.5t-27.5 -70.5v-81q0 -92 113 -92h113
q56 0 81.5 22t25.5 71z" />
    <glyph glyph-name="afii10097" unicode="&#x44f;" horiz-adv-x="772" 
d="M715 0h-166v177h-141l-162 -177h-204l175 177q-74 0 -118 36t-44 95v61q0 63 44.5 94t122.5 31h493v-494zM549 280v111h-252q-45 0 -62.5 -12t-17.5 -42q0 -32 18 -44.5t62 -12.5h252z" />
    <glyph glyph-name="afii10071" unicode="&#x451;" horiz-adv-x="698" 
d="M537 557h-166v138h166v-138zM308 557h-166v138h166v-138zM669 162q0 -74 -46 -118t-162 -44h-243q-100 0 -152 52t-52 137v125q0 74 52 128t155 54h236q59 0 101.5 -17t66 -46.5t34 -63.5t10.5 -74v-84h-489v-19q0 -89 79 -89h192q59 0 59 59h159zM510 303q0 90 -93 90
h-153q-84 0 -84 -90h330z" />
    <glyph glyph-name="afii10101" unicode="&#x454;" horiz-adv-x="724" 
d="M687 164q0 -56 -16.5 -89.5t-65.5 -54t-135 -20.5h-236q-94 0 -146.5 53t-52.5 130v119q0 89 53.5 141.5t151.5 52.5h216q120 0 171.5 -37t51.5 -124v-10h-158v20q0 25 -17.5 36.5t-59.5 11.5h-150q-93 0 -93 -91h272v-92h-272v-21q0 -40 25 -63t63 -23h160
q45 0 62.5 12.5t17.5 40.5v23h158v-15z" />
    <glyph glyph-name="afii10103" unicode="&#x456;" horiz-adv-x="298" 
d="M236 556h-166v138h166v-138zM236 0h-166v494h166v-494z" />
    <glyph glyph-name="afii10104" unicode="&#x457;" horiz-adv-x="338" 
d="M371 556h-166v138h166v-138zM142 556h-166v138h166v-138zM250 0h-166v494h166v-494z" />
    <glyph glyph-name="afii10105" unicode="&#x458;" horiz-adv-x="341" 
d="M276 556h-166v138h166v-138zM276 -29q0 -183 -259 -183v135q93 0 93 116v455h166v-523z" />
    <glyph glyph-name="afii10110" unicode="&#x45e;" horiz-adv-x="684" 
d="M545 695q0 -83 -43 -117t-146 -34t-146 34t-43 117h109q0 -30 13 -46.5t28 -20t39 -3.5q22 0 37.5 3.5t29 20t13.5 46.5h109zM670 494l-233 -493q-35 -75 -56 -111.5t-52 -62t-65 -32t-95 -6.5h-23v114h23q44 0 67 17.5t51 79.5h-44l-210 494h155l138 -356h19l165 356
h160z" />
    <glyph glyph-name="afii10147" unicode="&#x472;" horiz-adv-x="916" 
d="M868 237q0 -132 -54 -184.5t-197 -52.5h-305q-139 0 -197.5 55t-58.5 182v218q0 141 56.5 194t199.5 53h305q134 0 192.5 -53t58.5 -194v-218zM702 255v37h-480v-38q0 -68 27 -92t103 -24h220q79 0 104.5 23t25.5 94zM222 439v-26h480v27q0 74 -28.5 99t-104.5 25h-214
q-78 0 -105.5 -25.5t-27.5 -99.5z" />
    <glyph glyph-name="afii10195" unicode="&#x473;" horiz-adv-x="770" 
d="M716 193q0 -87 -56.5 -140t-159.5 -53h-232q-102 0 -159.5 53.5t-57.5 141.5v103q0 86 56 142t161 56h231q105 0 161 -55.5t56 -142.5v-105zM550 206v4h-333v-5q0 -91 113 -91h113q55 0 81 21.5t26 70.5zM330 382q-104 0 -113 -80h332q-5 37 -32 58.5t-74 21.5h-113z" />
    <glyph glyph-name="uni0492" unicode="&#x492;" horiz-adv-x="797" 
d="M741 556h-429v-128h290v-138h-290v-290h-166v290h-98v138h98v266h595v-138z" />
    <glyph glyph-name="uni0493" unicode="&#x493;" horiz-adv-x="612" 
d="M429 212h-180v-212h-166v212h-61v114h61v168h497v-114h-331v-54h180v-114z" />
    <glyph glyph-name="uni049A" unicode="&#x49a;" horiz-adv-x="980" 
d="M944 -167h-152v167h-142l-321 297h-101v-297h-166v694h166v-259h98l303 259h249l-409 -325l266 -231h209v-305z" />
    <glyph glyph-name="uni049B" unicode="&#x49b;" horiz-adv-x="746" 
d="M560 0h-109l-177 214h-61v-214h-166v494h166v-177h61l167 177h187l-231 -229l143 -151h172v-263h-152v149z" />
    <glyph glyph-name="uni04A2" unicode="&#x4a2;" horiz-adv-x="941" 
d="M814 694v-556h78v-305h-152v167h-92v290h-429v-290h-166v694h166v-266h429v266h166z" />
    <glyph glyph-name="uni04A3" unicode="&#x4a3;" horiz-adv-x="819" 
d="M714 494v-380h70v-263h-152v149h-84v213h-331v-213h-166v494h166v-167h331v167h166z" />
    <glyph glyph-name="uni04AE" unicode="&#x4ae;" horiz-adv-x="882" 
d="M886 694l-357 -460v-234h-166v234l-357 460h209l230 -323l232 323h209z" />
    <glyph glyph-name="uni04AF" unicode="&#x4af;" horiz-adv-x="684" 
d="M670 494l-233 -493h-14v-201h-166v200h-14l-210 494h155l138 -356h19l165 356h160z" />
    <glyph glyph-name="uni04B0" unicode="&#x4b0;" horiz-adv-x="882" 
d="M886 694l-357 -460v-1h199v-138h-199v-95h-166v95h-189v138h189v1l-357 460h209l230 -323l232 323h209z" />
    <glyph glyph-name="uni04B1" unicode="&#x4b1;" horiz-adv-x="684" 
d="M670 494l-233 -493h-14v-33h121v-114h-121v-54h-166v54h-120v114h120v32h-14l-210 494h155l138 -356h19l165 356h160z" />
    <glyph glyph-name="uni04B2" unicode="&#x4b2;" horiz-adv-x="1069" 
d="M1033 -167h-152v167h-145l-246 274l-246 -274h-244l359 357l-320 337h225l226 -253l226 253h225l-320 -337l220 -219h192v-305z" />
    <glyph glyph-name="uni04B3" unicode="&#x4b3;" horiz-adv-x="769" 
d="M584 0h-93l-141 175l-141 -175h-185l219 258l-199 236h187l121 -150l117 150h187l-199 -236l122 -144h157v-263h-152v149z" />
    <glyph glyph-name="uni04BA" unicode="&#x4ba;" horiz-adv-x="830" 
d="M777 0h-166v160q0 71 -29 98.5t-97 27.5h-117q-64 0 -98 -13t-57 -47v-226h-166v694h166v-318q79 48 183 48h126q131 0 193 -60t62 -186v-178z" />
    <glyph glyph-name="uni04BB" unicode="&#x4bb;" horiz-adv-x="781" 
d="M718 0h-166v255q0 65 -27.5 95t-90.5 30h-81q-63 0 -97.5 -36t-34.5 -102v-242h-166v694h166v-271q47 71 144 71h134q111 0 165 -51t54 -143v-300z" />
    <glyph glyph-name="uni04D8" unicode="&#x4d8;" horiz-adv-x="910" 
d="M863 246q0 -140 -54.5 -193t-198.5 -53h-309q-104 0 -157 22.5t-73.5 72.5t-20.5 146v172h647v30q0 80 -24.5 100.5t-110.5 20.5h-213q-71 0 -102 -23.5t-31 -76.5h-166q0 71 18.5 119t56 73.5t84 35.5t112.5 10h274q155 0 211.5 -52t56.5 -201v-203zM697 292h-480
q-1 -36 -1 -51q0 -62 28.5 -82.5t105.5 -20.5h213q75 0 104.5 25.5t29.5 101.5v27z" />
    <glyph glyph-name="afii10846" unicode="&#x4d9;" horiz-adv-x="698" 
d="M668 182q0 -74 -52 -128t-155 -54h-236q-59 0 -101.5 17t-66 46.5t-34 63.5t-10.5 74v84h489v19q0 89 -79 89h-192q-59 0 -59 -59h-159q0 74 46 118t162 44h243q100 0 152 -52t52 -137v-125zM172 193q0 -90 93 -90h153q84 0 84 90h-330z" />
    <glyph glyph-name="uni04E8" unicode="&#x4e8;" horiz-adv-x="916" 
d="M868 237q0 -132 -54 -184.5t-197 -52.5h-305q-139 0 -197.5 55t-58.5 182v218q0 141 56.5 194t199.5 53h305q134 0 192.5 -53t58.5 -194v-218zM702 255v37h-480v-38q0 -68 27 -92t103 -24h220q79 0 104.5 23t25.5 94zM222 439v-26h480v27q0 74 -28.5 99t-104.5 25h-214
q-78 0 -105.5 -25.5t-27.5 -99.5z" />
    <glyph glyph-name="uni04E9" unicode="&#x4e9;" horiz-adv-x="770" 
d="M716 193q0 -87 -56.5 -140t-159.5 -53h-232q-102 0 -159.5 53.5t-57.5 141.5v103q0 86 56 142t161 56h231q105 0 161 -55.5t56 -142.5v-105zM550 206v4h-333v-5q0 -91 113 -91h113q55 0 81 21.5t26 70.5zM330 382q-104 0 -113 -80h332q-5 37 -32 58.5t-74 21.5h-113z" />
    <glyph glyph-name="endash" unicode="&#x2013;" horiz-adv-x="733" 
d="M662 255h-595v138h595v-138z" />
    <glyph glyph-name="emdash" unicode="&#x2014;" horiz-adv-x="1107" 
d="M1040 255h-972v138h972v-138z" />
    <glyph glyph-name="quoteleft" unicode="&#x2018;" horiz-adv-x="289" 
d="M231 653q-40 0 -56.5 -12t-16.5 -44v-31h45v-166h-166v166q0 61 9 96t35 53.5t58.5 24t91.5 5.5v-92z" />
    <glyph glyph-name="quoteright" unicode="&#x2019;" horiz-adv-x="316" 
d="M241 548q0 -61 -9 -96t-35 -53.5t-58.5 -24t-91.5 -5.5v92q40 0 56.5 12t16.5 44v31h-45v166h166v-166z" />
    <glyph glyph-name="quotedblleft" unicode="&#x201c;" horiz-adv-x="551" 
d="M514 652q-40 0 -56.5 -12t-16.5 -44v-31h45v-166h-166v166q0 61 9 96t35 53.5t58.5 24t91.5 5.5v-92zM243 652q-40 0 -56.5 -12t-16.5 -44v-31h45v-166h-166v166q0 61 9 96t35 53.5t58.5 24t91.5 5.5v-92z" />
    <glyph glyph-name="quotedblright" unicode="&#x201d;" horiz-adv-x="609" 
d="M544 548q0 -61 -9 -96t-35 -53.5t-58.5 -24t-91.5 -5.5v92q40 0 56.5 12t16.5 44v31h-45v166h166v-166zM273 548q0 -61 -9 -96t-35 -53.5t-58.5 -24t-91.5 -5.5v92q40 0 56.5 12t16.5 44v31h-45v166h166v-166z" />
    <glyph glyph-name="quotedblbase" unicode="&#x201e;" horiz-adv-x="564" 
d="M493 -27q0 -61 -9 -96t-35 -53.5t-58.5 -24t-91.5 -5.5v92q40 0 56.5 12t16.5 44v31h-45v166h166v-166zM240 -27q0 -61 -9 -96t-35 -53.5t-58.5 -24t-91.5 -5.5v92q40 0 56.5 12t16.5 44v31h-45v166h166v-166z" />
    <glyph glyph-name="bullet" unicode="&#x2022;" horiz-adv-x="478" 
d="M402 282q0 -65 -43.5 -113.5t-118.5 -48.5q-80 0 -125 47t-45 111q0 65 46 114.5t124 49.5q76 0 119 -47.5t43 -112.5z" />
    <glyph glyph-name="ellipsis" unicode="&#x2026;" horiz-adv-x="924" 
d="M830 0h-166v166h166v-166zM535 0h-166v166h166v-166zM240 0h-166v166h166v-166z" />
    <glyph glyph-name="afii61352" unicode="&#x2116;" horiz-adv-x="1423" 
d="M1351 496q0 -43 -28.5 -71t-79.5 -28h-99q-51 0 -79.5 27.5t-28.5 71.5v54q0 43 27.5 70t80.5 27h99q53 0 80.5 -27t27.5 -70v-54zM1364 287h-343v75h343v-75zM957 0h-199l-526 519v-519h-166v694h248l477 -474v474h166v-694zM1277 503v38q0 47 -54 47h-56q-57 0 -57 -47
v-38q0 -47 57 -47h56q54 0 54 47z" />
    <glyph glyph-name="trademark" unicode="&#x2122;" horiz-adv-x="400" 
d="M357 529h-14l-26 131l-54 -140l-53 140l-28 -131h-13l39 175l55 -147l57 147zM174 689h-55v-160h-13v160h-56v13h124v-13z" />
    <glyph glyph-name="minus" unicode="&#x2212;" horiz-adv-x="733" 
d="M662 255h-595v138h595v-138z" />
    <glyph glyph-name="applesign" unicode="&#xf8ff;" horiz-adv-x="784" 
d="M535 762q0 -44 -42 -92.5t-80 -48.5q-12 0 -12 17q0 46 42 89.5t82 43.5q10 0 10 -9zM724 288q-39 -91 -90.5 -145.5t-107.5 -54.5q-28 0 -46.5 12.5t-33 25t-32.5 12.5q-22 0 -48 -23.5t-58 -23.5q-50 0 -106.5 62t-92 142.5t-35.5 136.5q0 86 49 143t140 57
q42 0 69.5 -13t47 -25.5t42.5 -12.5q21 0 58.5 25.5t85.5 25.5q39 0 80 -16t56 -51q-80 -59 -80 -137q0 -44 28.5 -84.5t73.5 -55.5z" />
  </font>
</defs>
</svg>
